<svg xmlns="http://www.w3.org/2000/svg" viewBox="0 0 94 94"><defs><style>.a{fill:#f4f4f4;}</style></defs><title>loader</title><path class="a" d="M83.66,42.42c-.14-1.33-.33-2.66-.58-4a35.89,35.89,0,0,0-2.89-8.8A36.55,36.55,0,0,0,71.43,18a34.5,34.5,0,0,0-9.28-6,34.15,34.15,0,0,0-12.3-2.82c-1.31,0-2.62,0-3.92.08a33.65,33.65,0,0,0-3.46.41A32.89,32.89,0,0,0,36,11.49l-.94.39c.06.1.1.18.14.26A14.93,14.93,0,0,1,37,19.2,16,16,0,0,1,36.79,22a14.64,14.64,0,0,1-3.67,7.63,14,14,0,0,1-9.64,4.7,13.48,13.48,0,0,1-4.88-.57,14.12,14.12,0,0,1-3-1.32.64.64,0,0,0-.06.1,37.6,37.6,0,0,0-2.09,8.42,38.44,38.44,0,0,0-.31,4c0,.77,0,1.54,0,2.32a40.28,40.28,0,0,0,.55,5.25A37,37,0,0,0,24.2,72.6,34.76,34.76,0,0,0,33.05,79,33.91,33.91,0,0,0,47.9,82.61c.51,0,1,0,1.54,0a32.77,32.77,0,0,0,6.68-.86A34.63,34.63,0,0,0,73.43,71.9,36.57,36.57,0,0,0,80,62.54a37.76,37.76,0,0,0,3.82-15.43A33.42,33.42,0,0,0,83.66,42.42Zm-44,13.36a13,13,0,0,1-4-7.47,13.88,13.88,0,0,1,.6-7.2s0,0,0,0a13.85,13.85,0,0,1,2.86-4.59,12.58,12.58,0,0,1,17-1.45,13.13,13.13,0,0,1,5.06,8.44c.14.8.19,1.61.26,2.26A17.09,17.09,0,0,1,61,49.18a13.12,13.12,0,0,1-6.18,8.45,11.74,11.74,0,0,1-5.24,1.69c-.32,0-.63,0-.94,0A12.41,12.41,0,0,1,39.69,55.78Z"/></svg>