<svg width="20" height="20" viewBox="0 0 20 20" fill="none" xmlns="http://www.w3.org/2000/svg">
<path fill-rule="evenodd" clip-rule="evenodd" d="M3.68583 3.68583C5.4048 1.96686 7.736 1.0008 10.167 1C12.5978 1.00106 14.9288 1.96724 16.6475 3.68618C18.3663 5.40513 19.3322 7.73618 19.333 10.167C19.3322 12.5978 18.3663 14.9289 16.6475 16.6478C14.9288 18.3668 12.5978 19.3329 10.167 19.334C7.736 19.3332 5.4048 18.3671 3.68583 16.6482C1.96686 14.9292 1.0008 12.598 1 10.167C1.0008 7.736 1.96686 5.4048 3.68583 3.68583ZM8.12715 6.65437C7.84579 6.35038 7.37127 6.33204 7.06728 6.61339C6.76329 6.89475 6.74494 7.36927 7.0263 7.67326L9.1511 9.96899L6.90672 12.1209C6.60773 12.4076 6.59775 12.8823 6.88442 13.1813C7.17109 13.4803 7.64586 13.4903 7.94484 13.2036L10.1701 11.07L12.2763 13.3456C12.5577 13.6496 13.0322 13.6679 13.3362 13.3866C13.6402 13.1052 13.6585 12.6307 13.3771 12.3267L11.253 10.0317L13.4981 7.87913C13.7971 7.59246 13.8071 7.11769 13.5204 6.81871C13.2338 6.51972 12.759 6.50973 12.46 6.7964L10.234 8.93071L8.12715 6.65437Z" fill="#D83B3B"/>
</svg>
